<svg xmlns="http://www.w3.org/2000/svg" width="20" height="20" viewBox="0 0 20 20" fill="none">
    <path fill-rule="evenodd" clip-rule="evenodd" d="M4.29303 4.30517C4.48056 4.1177 4.73487 4.01238 5.00003 4.01238C5.26519 4.01238 5.5195 4.1177 5.70703 4.30517L10 8.59817L14.293 4.30517C14.3853 4.20966 14.4956 4.13347 14.6176 4.08106C14.7396 4.02866 14.8709 4.00107 15.0036 3.99992C15.1364 3.99876 15.2681 4.02406 15.391 4.07434C15.5139 4.12463 15.6255 4.19888 15.7194 4.29277C15.8133 4.38666 15.8876 4.49832 15.9379 4.62121C15.9881 4.74411 16.0134 4.87579 16.0123 5.00857C16.0111 5.14135 15.9835 5.27257 15.9311 5.39457C15.8787 5.51657 15.8025 5.62692 15.707 5.71917L11.414 10.0122L15.707 14.3052C15.8892 14.4938 15.99 14.7464 15.9877 15.0086C15.9854 15.2708 15.8803 15.5216 15.6948 15.707C15.5094 15.8924 15.2586 15.9976 14.9964 15.9998C14.7342 16.0021 14.4816 15.9013 14.293 15.7192L10 11.4262L5.70703 15.7192C5.51843 15.9013 5.26583 16.0021 5.00363 15.9998C4.74143 15.9976 4.49062 15.8924 4.30521 15.707C4.1198 15.5216 4.01463 15.2708 4.01236 15.0086C4.01008 14.7464 4.11087 14.4938 4.29303 14.3052L8.58603 10.0122L4.29303 5.71917C4.10556 5.53164 4.00024 5.27733 4.00024 5.01217C4.00024 4.747 4.10556 4.49269 4.29303 4.30517Z" fill="#6C727F"/>
  </svg>