<svg xmlns="http://www.w3.org/2000/svg" width="32" height="32" viewBox="0 0 32 32" fill="none">
    <path
        d="M15.999 32C15.5846 32 15.1872 31.8354 14.8942 31.5424C14.6011 31.2493 14.4365 30.8519 14.4365 30.4375V1.5625C14.4365 1.1481 14.6011 0.750671 14.8942 0.457646C15.1872 0.16462 15.5846 0 15.999 0C16.4134 0 16.8109 0.16462 17.1039 0.457646C17.3969 0.750671 17.5615 1.1481 17.5615 1.5625V30.4375C17.5615 30.8519 17.3969 31.2493 17.1039 31.5424C16.8109 31.8354 16.4134 32 15.999 32Z"
        fill="#666666" />
    <path
        d="M30.4365 17.5625H1.56152C1.14712 17.5625 0.749695 17.3979 0.456669 17.1049C0.163644 16.8118 -0.000976562 16.4144 -0.000976562 16C-0.000976562 15.5856 0.163644 15.1882 0.456669 14.8951C0.749695 14.6021 1.14712 14.4375 1.56152 14.4375H30.4365C30.8509 14.4375 31.2484 14.6021 31.5414 14.8951C31.8344 15.1882 31.999 15.5856 31.999 16C31.999 16.4144 31.8344 16.8118 31.5414 17.1049C31.2484 17.3979 30.8509 17.5625 30.4365 17.5625Z"
        fill="#666666" />
</svg>