<svg xmlns="http://www.w3.org/2000/svg" width="20" height="20" viewBox="0 0 20 20" fill="none">
    <path
        d="M11.3742 10.0001L17.2149 4.15912C17.595 3.77918 17.595 3.16485 17.2149 2.78496C16.835 2.40501 16.2207 2.40501 15.8408 2.78496L9.9999 8.62593L4.15921 2.78496C3.7791 2.40501 3.16502 2.40501 2.78508 2.78496C2.40497 3.1649 2.40497 3.77918 2.78508 4.15912L8.62573 10.0001L2.78513 15.8411C2.40502 16.221 2.40502 16.8354 2.78513 17.2153C2.87525 17.3057 2.98234 17.3773 3.10025 17.4262C3.21816 17.4751 3.34456 17.5001 3.4722 17.5C3.72093 17.5 3.96975 17.4048 4.15926 17.2153L9.9999 11.3743L15.8408 17.2153C15.931 17.3056 16.038 17.3773 16.156 17.4262C16.2739 17.475 16.4003 17.5001 16.5279 17.5C16.7766 17.5 17.0254 17.4048 17.2149 17.2153C17.595 16.8353 17.595 16.221 17.2149 15.8411L11.3742 10.0001Z"
        fill="#1e2937" />
</svg>