<svg xmlns="http://www.w3.org/2000/svg" width="72" height="72" viewBox="0 0 72 72" fill="none">
    <g clip-path="url(#clip0_10471_5024)">
        <path
            d="M66 3C66.7954 3.00079 67.558 3.31712 68.1204 3.87956C68.6829 4.44199 68.9992 5.20459 69 6V66C68.9992 66.7954 68.6829 67.558 68.1204 68.1204C67.558 68.6829 66.7954 68.9992 66 69H6C5.20459 68.9992 4.44199 68.6829 3.87956 68.1204C3.31712 67.558 3.00079 66.7954 3 66V6C3.00079 5.20459 3.31712 4.44199 3.87956 3.87956C4.44199 3.31712 5.20459 3.00079 6 3H66ZM66 0H6C4.4087 0 2.88258 0.632141 1.75736 1.75736C0.632141 2.88258 0 4.4087 0 6L0 66C0 67.5913 0.632141 69.1174 1.75736 70.2426C2.88258 71.3679 4.4087 72 6 72H66C67.5913 72 69.1174 71.3679 70.2426 70.2426C71.3679 69.1174 72 67.5913 72 66V6C72 4.4087 71.3679 2.88258 70.2426 1.75736C69.1174 0.632141 67.5913 0 66 0Z"
            fill="#005B8C" />
        <path
            d="M69 16.5H3C2.60218 16.5 2.22064 16.342 1.93934 16.0607C1.65804 15.7794 1.5 15.3978 1.5 15C1.5 14.6022 1.65804 14.2206 1.93934 13.9393C2.22064 13.658 2.60218 13.5 3 13.5H69C69.3978 13.5 69.7794 13.658 70.0607 13.9393C70.342 14.2206 70.5 14.6022 70.5 15C70.5 15.3978 70.342 15.7794 70.0607 16.0607C69.7794 16.342 69.3978 16.5 69 16.5ZM54 10.5H48C47.6022 10.5 47.2206 10.342 46.9393 10.0607C46.658 9.77936 46.5 9.39782 46.5 9C46.5 8.60218 46.658 8.22064 46.9393 7.93934C47.2206 7.65804 47.6022 7.5 48 7.5H54C54.3978 7.5 54.7794 7.65804 55.0607 7.93934C55.342 8.22064 55.5 8.60218 55.5 9C55.5 9.39782 55.342 9.77936 55.0607 10.0607C54.7794 10.342 54.3978 10.5 54 10.5ZM66 10.5H60C59.6022 10.5 59.2206 10.342 58.9393 10.0607C58.658 9.77936 58.5 9.39782 58.5 9C58.5 8.60218 58.658 8.22064 58.9393 7.93934C59.2206 7.65804 59.6022 7.5 60 7.5H66C66.3978 7.5 66.7794 7.65804 67.0607 7.93934C67.342 8.22064 67.5 8.60218 67.5 9C67.5 9.39782 67.342 9.77936 67.0607 10.0607C66.7794 10.342 66.3978 10.5 66 10.5ZM36 61.5C32.1433 61.5 28.3731 60.3563 25.1664 58.2137C21.9596 56.071 19.4603 53.0255 17.9843 49.4623C16.5084 45.8992 16.1223 41.9784 16.8747 38.1957C17.6271 34.4131 19.4843 30.9385 22.2114 28.2114C24.9385 25.4843 28.4131 23.6271 32.1957 22.8747C35.9784 22.1223 39.8992 22.5084 43.4623 23.9843C47.0255 25.4603 50.071 27.9596 52.2137 31.1664C54.3563 34.3731 55.5 38.1433 55.5 42C55.4936 47.1698 53.4371 52.126 49.7816 55.7816C46.126 59.4371 41.1698 61.4936 36 61.5ZM36 25.5C32.7366 25.5 29.5465 26.4677 26.8331 28.2808C24.1197 30.0938 22.0048 32.6707 20.756 35.6857C19.5071 38.7007 19.1804 42.0183 19.817 45.219C20.4537 48.4197 22.0252 51.3597 24.3327 53.6673C26.6403 55.9748 29.5803 57.5463 32.781 58.183C35.9817 58.8196 39.2993 58.4929 42.3143 57.244C45.3293 55.9952 47.9062 53.8803 49.7192 51.1669C51.5323 48.4535 52.5 45.2634 52.5 42C52.4944 37.6256 50.7543 33.432 47.6611 30.3389C44.568 27.2457 40.3744 25.5056 36 25.5Z"
            fill="#005B8C" />
        <path
            d="M29.6369 49.863C29.3404 49.8629 29.0507 49.775 28.8041 49.6104C28.5576 49.4458 28.3654 49.2118 28.2518 48.938C28.1381 48.6642 28.1082 48.3628 28.1657 48.072C28.2232 47.7812 28.3656 47.5139 28.5749 47.304L41.3039 34.575C41.5868 34.3018 41.9657 34.1506 42.359 34.154C42.7523 34.1574 43.1285 34.3152 43.4066 34.5933C43.6847 34.8714 43.8425 35.2476 43.8459 35.6409C43.8493 36.0342 43.6981 36.4131 43.4249 36.696L30.6959 49.425C30.5569 49.5641 30.3918 49.6744 30.2101 49.7496C30.0283 49.8247 29.8335 49.8633 29.6369 49.863Z"
            fill="#005B8C" />
        <path
            d="M42.3629 49.863C42.1662 49.8633 41.9714 49.8247 41.7897 49.7496C41.608 49.6744 41.4429 49.5641 41.3039 49.425L28.5749 36.696C28.3016 36.4131 28.1504 36.0342 28.1539 35.6409C28.1573 35.2476 28.315 34.8714 28.5931 34.5933C28.8713 34.3152 29.2475 34.1574 29.6408 34.154C30.0341 34.1506 30.413 34.3018 30.6959 34.575L43.4249 47.304C43.6342 47.5139 43.7766 47.7812 43.8341 48.072C43.8916 48.3628 43.8616 48.6642 43.748 48.938C43.6344 49.2118 43.4421 49.4458 43.1956 49.6104C42.9491 49.775 42.6593 49.8629 42.3629 49.863Z"
            fill="#005B8C" />
    </g>
    <defs>
        <clipPath id="clip0_10471_5024">
            <rect width="72" height="72" fill="white" />
        </clipPath>
    </defs>
</svg>